<svg width="40" height="40" viewBox="0 0 40 40" fill="none" xmlns="http://www.w3.org/2000/svg">
<path d="M153.376 29V16.328H156.544L156.592 18.416C157.008 17.728 157.552 17.168 158.224 16.736C158.912 16.288 159.632 16.064 160.384 16.064C160.672 16.064 160.936 16.088 161.176 16.136C161.432 16.168 161.648 16.216 161.824 16.28L160.936 19.88C160.76 19.784 160.536 19.704 160.264 19.64C159.992 19.576 159.72 19.544 159.448 19.544C158.664 19.544 158 19.816 157.456 20.36C156.928 20.888 156.664 21.56 156.664 22.376V29H153.376Z" fill="#494D4B"/>
<path d="M38.125 19.8876C38.1494 23.0542 37.3398 26.1714 35.7774 28.9259C35.575 29.2837 35.3607 29.6337 35.1344 29.9759C35.0225 30.1498 34.8772 30.2998 34.7069 30.4171C34.5367 30.5345 34.3448 30.6169 34.1424 30.6595C33.94 30.7021 33.7312 30.7041 33.5281 30.6655C33.3249 30.6268 33.1315 30.5482 32.9589 30.4341C32.7864 30.3201 32.6382 30.173 32.523 30.0013C32.4077 29.8296 32.3277 29.6367 32.2875 29.4338C32.2474 29.231 32.2479 29.0222 32.2891 28.8195C32.3303 28.6168 32.4113 28.4244 32.5274 28.2532C34.0185 25.9897 34.8685 23.3644 34.987 20.6564C35.1054 17.9484 34.4879 15.2589 33.2001 12.8738C31.9123 10.4887 30.0022 8.49708 27.673 7.11069C25.3438 5.7243 22.6825 4.99493 19.9719 5.0001C14.7618 5.01026 10.1422 7.74541 7.45706 11.8321C5.85189 14.2703 4.99772 17.1259 5.0005 20.045C5.00327 22.9641 5.86288 25.8182 7.47269 28.2532C7.70092 28.5991 7.78239 29.0216 7.69917 29.4275C7.61595 29.8335 7.37486 30.1898 7.02894 30.4181C6.68302 30.6463 6.2606 30.7278 5.85461 30.6445C5.44863 30.5613 5.09233 30.3202 4.8641 29.9743C3.0791 27.2655 2.05381 24.1272 1.89521 20.887C1.73662 17.6468 2.45053 14.4235 3.96245 11.5533C5.47437 8.68306 7.72889 6.27121 10.4907 4.56941C13.2526 2.86761 16.4206 1.93822 19.6641 1.87822C19.7782 1.87588 19.8914 1.8751 20.0047 1.8751C24.7949 1.86523 29.3933 3.75637 32.7905 7.13341C36.1878 10.5105 38.1063 15.0975 38.125 19.8876Z" fill="#494D4B"/>
<path d="M9.06588 22.7944L11.8978 36.8819C12.0678 37.7276 12.8911 38.2753 13.7368 38.1053C14.5825 37.9353 15.1303 37.1119 14.9603 36.2663L12.1284 22.1788C11.9584 21.3331 11.135 20.7853 10.2893 20.9553C9.44363 21.1253 8.89588 21.9487 9.06588 22.7944Z" fill="#04D361"/>
<path d="M11.8438 36.5641L11.1258 36.7086C10.059 36.9234 8.95038 36.7225 8.02677 36.147C7.10316 35.5715 6.43432 34.6648 6.15706 33.6125C6.13597 33.5313 6.11644 33.45 6.10003 33.3672L5.07112 28.2555C4.84815 27.1459 5.07485 25.9931 5.70141 25.0506C6.32796 24.108 7.3031 23.4528 8.41253 23.2289L9.1305 23.0844L10.3899 29.3406L11.8438 36.5641Z" fill="#494D4B"/>
<path d="M11.8438 36.5641L11.1259 36.7086C10.059 36.9234 8.95043 36.7225 8.02682 36.147C7.1032 35.5715 6.43437 34.6649 6.1571 33.6125C7.67448 32.2981 9.08951 30.87 10.3899 29.3407L11.8438 36.5641Z" fill="#494D4B"/>
<path d="M36.1477 27.0875L35.7774 28.9258C35.575 29.2836 35.3607 29.6336 35.1344 29.9758C35.0225 30.1497 34.8772 30.2997 34.7069 30.4171C34.5366 30.5344 34.3448 30.6168 34.1424 30.6594C33.94 30.702 33.7312 30.7041 33.5281 30.6654C33.3249 30.6267 33.1315 30.5481 32.9589 30.4341C32.7864 30.3201 32.6382 30.1729 32.5229 30.0012C32.4077 29.8295 32.3277 29.6366 32.2875 29.4338C32.2474 29.2309 32.2479 29.0221 32.2891 28.8194C32.3303 28.6167 32.4112 28.4243 32.5274 28.2531C33.5865 26.6502 34.3258 24.8577 34.7047 22.9742C35.2927 23.4668 35.7371 24.1089 35.991 24.8327C36.245 25.5566 36.2991 26.3355 36.1477 27.0875Z" fill="#494D4B"/>
<path d="M34.2953 8.82971L32.0539 11.0711C30.6573 9.1825 28.836 7.64891 26.7371 6.59426C24.6383 5.53962 22.3208 4.99349 19.9719 5.00002C14.7617 5.01017 10.1422 7.74533 7.45703 11.832L5.18359 9.55861C6.82274 7.22938 8.98843 5.31984 11.5046 3.98527C14.0207 2.65069 16.8163 1.92875 19.6641 1.87814C19.7781 1.8758 19.8914 1.87502 20.0047 1.87502C22.7591 1.86885 25.4786 2.49223 27.9553 3.69756C30.4321 4.9029 32.6006 6.6583 34.2953 8.82971Z" fill="#8257E5"/>
<path d="M27.8464 22.1635L25.0145 36.251C24.8445 37.0967 25.3922 37.9201 26.2379 38.0901C27.0836 38.2601 27.907 37.7123 28.077 36.8666L30.9089 22.7791C31.0789 21.9335 30.5311 21.1101 29.6854 20.9401C28.8397 20.7701 28.0164 21.3178 27.8464 22.1635Z" fill="#04D361"/>
<path d="M34.9289 28.2555L33.9 33.3672C33.6766 34.4767 33.0216 35.4521 32.0791 36.0787C31.1366 36.7054 29.9838 36.9319 28.8742 36.7086L28.1562 36.5641L28.9 32.8711L30.8695 23.0844L31.5875 23.2289C32.6968 23.4531 33.672 24.108 34.2992 25.05C34.3856 25.1799 34.4646 25.3144 34.5359 25.4531C34.9817 26.3154 35.1203 27.3038 34.9289 28.2555Z" fill="#494D4B"/>
<path d="M34.9289 28.2555L33.9 33.3672C33.6766 34.4768 33.0216 35.4521 32.0791 36.0788C31.1366 36.7054 29.9838 36.932 28.8742 36.7086L28.1562 36.5641L28.9 32.8711C31.0403 30.6086 32.9299 28.1215 34.5359 25.4531C34.9817 26.3154 35.1203 27.3039 34.9289 28.2555Z" fill="#494D4B"/>
</svg>
